<?xml version="1.0" encoding="UTF-8"?>
<svg id="Layer_1" data-name="Layer 1" xmlns="http://www.w3.org/2000/svg" viewBox="0 0 62.59 34.91">
  <defs>
    <style>
      .cls-1 {
        fill: #236b35;
      }
    </style>
  </defs>
  <g id="a_premium_download_icon_of_grass" data-name="a premium download icon of grass">
    <g>
      <path class="cls-1" d="m36.42,34.9c.27-3.3,2.07-23.17,6.56-33.44.24-.55-.02-1.02-.31-1.25-.29-.23-.77-.35-1.23,0-2.98,2.31-5.6,5.14-7.79,8.39l-1.69,2.75c-3.65,6.53-5.62,14.38-5.86,23.33,0,.03,0,.06,0,.09l10.31.12Z"/>
      <path class="cls-1" d="m4.74,34.78h9.67c.39-8.14-6.85-12.44-13.05-14.62-.53-.19-.95.06-1.16.35-.22.3-.33.79.02,1.25,4.25,5.67,4.54,11.28,4.52,13.03"/>
      <path class="cls-1" d="m8.93,11.9l1.44,2.81s0,0,0,.01c3.18,6.64,4.92,13.38,5.2,20.05h9.53c-.33-3.43-2.79-22.51-17-27.77-.49-.18-.89.04-1.11.32-.22.28-.36.74-.07,1.19.7,1.09,1.37,2.23,2,3.38"/>
      <path class="cls-1" d="m48.18,34.91h9.67c-.02-1.74.27-7.36,4.52-13.03.35-.47.24-.95.02-1.25-.21-.29-.63-.53-1.16-.35-6.2,2.19-13.44,6.49-13.05,14.62"/>
      <path class="cls-1" d="m46.99,34.91c.49-11.85,5.61-21.51,8.65-26.26.29-.45.15-.91-.07-1.19-.22-.27-.62-.49-1.11-.31-14.21,5.26-16.67,24.33-17,27.76h9.53Z"/>
    </g>
  </g>
</svg>