<svg xmlns="http://www.w3.org/2000/svg" version="1.1" xmlns:xlink="http://www.w3.org/1999/xlink" xmlns:svgjs="http://svgjs.dev/svgjs" width="1000" height="1000" viewBox="0 0 1000 1000"><rect width="1000" height="1000" fill="#ffffff"></rect><g transform="matrix(0.7,0,0,0.7,149.5757674090728,455.0351211332245)"><svg viewBox="0 0 396 51" data-background-color="#ffffff" preserveAspectRatio="xMidYMid meet" height="128" width="1000" xmlns="http://www.w3.org/2000/svg" xmlns:xlink="http://www.w3.org/1999/xlink"><g id="tight-bounds" transform="matrix(1,0,0,1,0.23999443715308644,0.0938484621155169)"><svg viewBox="0 0 395.52 50.812303075768945" height="50.812303075768945" width="395.52"><g><svg viewBox="0 0 395.52 50.812303075768945" height="50.812303075768945" width="395.52"><g><svg viewBox="0 0 395.52 50.812303075768945" height="50.812303075768945" width="395.52"><g id="textblocktransform"><svg viewBox="0 0 395.52 50.812303075768945" height="50.812303075768945" width="395.52" id="textblock"><g><svg viewBox="0 0 395.52 50.812303075768945" height="50.812303075768945" width="395.52"><g transform="matrix(1,0,0,1,0,0)"><svg width="395.52" viewBox="-0.10000000149011612 -33.45000076293945 260.42999267578125 33.45000076293945" height="50.812303075768945" data-palette-color="#50a060"><g class="undefined-text-0" data-fill-palette-color="primary" id="text-0"><path d="M10.69-33.45L18.21-33.45Q20.68-33.45 22.68-32.71 24.68-31.98 26.09-30.71 27.49-29.44 28.25-27.75 29-26.05 29-24.15L29-24.15 29-9.3Q29-7.4 28.25-5.7 27.49-4 26.09-2.73 24.68-1.46 22.68-0.73 20.68 0 18.21 0L18.21 0 10.69 0Q8.23 0 6.23-0.73 4.22-1.46 2.82-2.73 1.42-4 0.66-5.7-0.1-7.4-0.1-9.3L-0.1-9.3-0.1-24.15Q-0.1-26.05 0.66-27.75 1.42-29.44 2.82-30.71 4.22-31.98 6.23-32.71 8.23-33.45 10.69-33.45L10.69-33.45ZM22.14-14.94L22.14-18.8 21.68-20.61 19.73-21.46 21.68-22.19 22.14-24.05 22.14-27.29 21.8-29.35 20.26-30.91 17.75-31.25 7.5-31.25 7.5-11.06 17.75-11.06 20.26-11.35 21.8-12.89 22.14-14.94ZM19.56-15.21L19.21-13.89 17.6-13.65 10.11-13.65 10.11-20.09 17.65-20.09 19.31-19.9 19.56-18.46 19.56-15.21ZM19.56-24.24L19.21-22.95 17.6-22.66 10.11-22.66 10.11-28.66 17.6-28.66 19.31-28.39 19.21-26.95 19.56-24.24ZM39.6-33.45L47.12-33.45Q49.58-33.45 51.58-32.71 53.59-31.98 54.99-30.71 56.39-29.44 57.15-27.75 57.91-26.05 57.91-24.15L57.91-24.15 57.91-9.3Q57.91-7.4 57.15-5.7 56.39-4 54.99-2.73 53.59-1.46 51.58-0.73 49.58 0 47.12 0L47.12 0 39.6 0Q37.13 0 35.13-0.73 33.13-1.46 31.72-2.73 30.32-4 29.56-5.7 28.81-7.4 28.81-9.3L28.81-9.3 28.81-24.15Q28.81-26.05 29.56-27.75 30.32-29.44 31.72-30.71 33.13-31.98 35.13-32.71 37.13-33.45 39.6-33.45L39.6-33.45ZM48.9-16.26L49.36-11.06 52.15-11.06 50.22-29.25 48.7-30.76 45.46-31.25 42.84-31.25 39.6-30.76 38.11-29.25 36.11-11.06 39.01-11.06 39.4-16.26 39.65-18.51 48.65-18.51 48.9-16.26ZM45.36-28.66L47.65-28.3Q47.82-26.32 48.04-24.56 48.26-22.8 48.46-20.85L48.46-20.85 39.87-20.85 40.6-28.3Q41.28-28.37 41.78-28.47 42.28-28.56 42.97-28.66L42.97-28.66 45.36-28.66ZM73.36-20.29L69.01-31.25 65.96-31.25 72.07-16.75 72.07-11.06 74.65-11.06 74.65-16.7 80.85-31.25 77.8-31.25 73.36-20.29ZM68.5-33.45L76.02-33.45Q78.49-33.45 80.49-32.71 82.49-31.98 83.89-30.71 85.3-29.44 86.05-27.75 86.81-26.05 86.81-24.15L86.81-24.15 86.81-9.3Q86.81-7.4 86.05-5.7 85.3-4 83.89-2.73 82.49-1.46 80.49-0.73 78.49 0 76.02 0L76.02 0 68.5 0Q66.04 0 64.03-0.73 62.03-1.46 60.63-2.73 59.22-4 58.47-5.7 57.71-7.4 57.71-9.3L57.71-9.3 57.71-24.15Q57.71-26.05 58.47-27.75 59.22-29.44 60.63-30.71 62.03-31.98 64.03-32.71 66.04-33.45 68.5-33.45L68.5-33.45Z" fill="#50a060" data-fill-palette-color="primary"></path><path d="M97.5-33.45L105.02-33.45Q107.49-33.45 109.49-32.71 111.49-31.98 112.9-30.71 114.3-29.44 115.06-27.75 115.81-26.05 115.81-24.15L115.81-24.15 115.81-9.3Q115.81-7.4 115.06-5.7 114.3-4 112.9-2.73 111.49-1.46 109.49-0.73 107.49 0 105.02 0L105.02 0 97.5 0Q95.04 0 93.04-0.73 91.03-1.46 89.63-2.73 88.23-4 87.47-5.7 86.71-7.4 86.71-9.3L86.71-9.3 86.71-24.15Q86.71-26.05 87.47-27.75 88.23-29.44 89.63-30.71 91.03-31.98 93.04-32.71 95.04-33.45 97.5-33.45L97.5-33.45ZM108.95-14.94L108.95-18.8 108.49-20.61 106.54-21.46 108.49-22.19 108.95-24.05 108.95-27.29 108.61-29.35 107.07-30.91 104.56-31.25 94.31-31.25 94.31-11.06 104.56-11.06 107.07-11.35 108.61-12.89 108.95-14.94ZM106.37-15.21L106.02-13.89 104.41-13.65 96.92-13.65 96.92-20.09 104.46-20.09 106.12-19.9 106.37-18.46 106.37-15.21ZM106.37-24.24L106.02-22.95 104.41-22.66 96.92-22.66 96.92-28.66 104.41-28.66 106.12-28.39 106.02-26.95 106.37-24.24ZM136.76-11.06L136.76-13.65 129.26-13.65 129.26-31.25 126.68-31.25 126.68-11.06 136.76-11.06ZM126.41-33.45L133.93-33.45Q136.39-33.45 138.39-32.71 140.4-31.98 141.8-30.71 143.2-29.44 143.96-27.75 144.72-26.05 144.72-24.15L144.72-24.15 144.72-9.3Q144.72-7.4 143.96-5.7 143.2-4 141.8-2.73 140.4-1.46 138.39-0.73 136.39 0 133.93 0L133.93 0 126.41 0Q123.94 0 121.94-0.73 119.94-1.46 118.53-2.73 117.13-4 116.37-5.7 115.62-7.4 115.62-9.3L115.62-9.3 115.62-24.15Q115.62-26.05 116.37-27.75 117.13-29.44 118.53-30.71 119.94-31.98 121.94-32.71 123.94-33.45 126.41-33.45L126.41-33.45ZM155.31-33.45L162.83-33.45Q165.3-33.45 167.3-32.71 169.3-31.98 170.7-30.71 172.11-29.44 172.86-27.75 173.62-26.05 173.62-24.15L173.62-24.15 173.62-9.3Q173.62-7.4 172.86-5.7 172.11-4 170.7-2.73 169.3-1.46 167.3-0.73 165.3 0 162.83 0L162.83 0 155.31 0Q152.85 0 150.84-0.73 148.84-1.46 147.44-2.73 146.03-4 145.28-5.7 144.52-7.4 144.52-9.3L144.52-9.3 144.52-24.15Q144.52-26.05 145.28-27.75 146.03-29.44 147.44-30.71 148.84-31.98 150.84-32.71 152.85-33.45 155.31-33.45L155.31-33.45ZM167.86-14.99L167.86-27.29 167.52-29.35 165.98-30.91 163.47-31.25 156.92-31.25 154.43-30.91 152.87-29.35 152.58-27.29 152.58-14.99 152.87-12.89 154.48-11.35 156.92-11.06 163.47-11.06 165.98-11.35 167.52-12.89 167.86-14.99ZM165.27-15.26L164.93-13.89 163.32-13.65 157.07-13.65 155.48-13.89 155.12-15.36 155.12-27.05 155.36-28.39 157.07-28.66 163.32-28.66 165.03-28.39 165.27-26.95 165.27-15.26ZM184.21-33.45L191.73-33.45Q194.2-33.45 196.2-32.71 198.2-31.98 199.61-30.71 201.01-29.44 201.77-27.75 202.53-26.05 202.53-24.15L202.53-24.15 202.53-9.3Q202.53-7.4 201.77-5.7 201.01-4 199.61-2.73 198.2-1.46 196.2-0.73 194.2 0 191.73 0L191.73 0 184.21 0Q181.75 0 179.75-0.73 177.74-1.46 176.34-2.73 174.94-4 174.18-5.7 173.42-7.4 173.42-9.3L173.42-9.3 173.42-24.15Q173.42-26.05 174.18-27.75 174.94-29.44 176.34-30.71 177.74-31.98 179.75-32.71 181.75-33.45 184.21-33.45L184.21-33.45ZM196.76-14.99L196.76-27.29 196.42-29.35 194.88-30.91 192.37-31.25 185.83-31.25 183.34-30.91 181.77-29.35 181.48-27.29 181.48-14.99 181.77-12.89 183.38-11.35 185.83-11.06 192.37-11.06 194.88-11.35 196.42-12.89 196.76-14.99ZM194.18-15.26L193.83-13.89 192.22-13.65 185.97-13.65 184.39-13.89 184.02-15.36 184.02-27.05 184.26-28.39 185.97-28.66 192.22-28.66 193.93-28.39 194.18-26.95 194.18-15.26ZM213.12-33.45L220.64-33.45Q223.1-33.45 225.11-32.71 227.11-31.98 228.51-30.71 229.92-29.44 230.67-27.75 231.43-26.05 231.43-24.15L231.43-24.15 231.43-9.3Q231.43-7.4 230.67-5.7 229.92-4 228.51-2.73 227.11-1.46 225.11-0.73 223.1 0 220.64 0L220.64 0 213.12 0Q210.65 0 208.65-0.73 206.65-1.46 205.24-2.73 203.84-4 203.08-5.7 202.33-7.4 202.33-9.3L202.33-9.3 202.33-24.15Q202.33-26.05 203.08-27.75 203.84-29.44 205.24-30.71 206.65-31.98 208.65-32.71 210.65-33.45 213.12-33.45L213.12-33.45ZM217.63-29.17L216.83-30.86 215.49-31.25 212.29-31.25 210.24-30.91 208.68-29.35 208.68-11.06 211.29-11.06 211.29-28.44Q211.63-28.52 211.9-28.54 212.17-28.56 212.48-28.66L212.48-28.66 215.27-28.66Q215.54-28.56 215.79-28.54 216.05-28.52 216.32-28.44L216.32-28.44 216.32-18.09 218.93-18.09 218.93-28.44 219.98-28.66 222.79-28.66Q223.08-28.56 223.37-28.54 223.67-28.52 223.98-28.44L223.98-28.44 223.98-11.06 226.57-11.06 226.57-29.35 225.03-30.91 222.98-31.25 219.78-31.25 218.47-30.86 217.63-29.17ZM242.02-33.45L249.54-33.45Q252.01-33.45 254.01-32.71 256.01-31.98 257.42-30.71 258.82-29.44 259.58-27.75 260.33-26.05 260.33-24.15L260.33-24.15 260.33-9.3Q260.33-7.4 259.58-5.7 258.82-4 257.42-2.73 256.01-1.46 254.01-0.73 252.01 0 249.54 0L249.54 0 242.02 0Q239.56 0 237.55-0.73 235.55-1.46 234.15-2.73 232.74-4 231.99-5.7 231.23-7.4 231.23-9.3L231.23-9.3 231.23-24.15Q231.23-26.05 231.99-27.75 232.74-29.44 234.15-30.71 235.55-31.98 237.55-32.71 239.56-33.45 242.02-33.45L242.02-33.45ZM254.13-14.99L254.13-18.7 253.79-20.8 252.23-22.34 249.69-22.61 244.22-22.61 242.73-22.9Q242.61-23.32 242.56-23.65 242.51-23.97 242.39-24.34L242.39-24.34 242.39-26.9 242.73-28.34 244.34-28.66 250.54-28.66 252.84-28.2 253.42-30.86 250.59-31.25 244.17-31.25 241.73-30.91 240.14-29.35 239.82-27.29 239.82-23.95 240.14-21.9 241.73-20.36 244.17-20.04 249.69-20.04 251.18-19.8Q251.25-19.43 251.35-19.12 251.45-18.8 251.52-18.46L251.52-18.46 251.52-15.26Q251.47-14.94 251.36-14.58 251.25-14.21 251.18-13.89L251.18-13.89 249.59-13.65 243.54-13.65 241.14-14.04 240.53-11.4 243.39-11.06 249.74-11.06 252.23-11.35 253.79-12.89 254.13-14.99Z" fill="#c9efc7" data-fill-palette-color="secondary"></path></g></svg></g></svg></g></svg></g></svg></g></svg></g><defs></defs></svg><rect width="395.52" height="50.812303075768945" fill="none" stroke="none" visibility="hidden"></rect></g></svg></g></svg>